<?xml version="1.0" encoding="utf-8"?>
<!-- Generator: Adobe Illustrator 25.4.1, SVG Export Plug-In . SVG Version: 6.00 Build 0)  -->
<svg version="1.1" xmlns="http://www.w3.org/2000/svg" xmlns:xlink="http://www.w3.org/1999/xlink" x="0px" y="0px"
	 viewBox="0 0 1080 1080" style="enable-background:new 0 0 1080 1080;" xml:space="preserve">
<style type="text/css">
	.st0{stroke:#FFFFFF;stroke-miterlimit:10;}
	.st1{fill:#FFFFFF;}
</style>
<g id="Layer_1">
	<rect y="0" class="st0" width="1080" height="1080"/>
</g>
<g id="Layer_2">
	<g>
		<g>
			<g>
				<g>
					<g>
						<circle class="st1" cx="448.96" cy="445.61" r="6.5"/>
						<circle class="st1" cx="462.89" cy="432.37" r="6.18"/>
						<circle class="st1" cx="478.73" cy="421.46" r="5.85"/>
						<circle class="st1" cx="496.08" cy="413.19" r="5.53"/>
						<circle class="st1" cx="514.52" cy="407.75" r="5.2"/>
						
							<ellipse transform="matrix(0.7391 -0.6736 0.6736 0.7391 -133.7606 465.1472)" class="st1" cx="533.58" cy="405.25" rx="4.88" ry="4.88"/>
						<circle class="st1" cx="552.8" cy="405.74" r="4.55"/>
						<circle class="st1" cx="571.71" cy="409.23" r="4.23"/>
						<circle class="st1" cx="589.84" cy="415.64" r="3.9"/>
						<circle class="st1" cx="606.73" cy="424.82" r="3.58"/>
						<circle class="st1" cx="621.97" cy="436.54" r="3.25"/>
						<circle class="st1" cx="635.22" cy="450.47" r="2.93"/>
						<circle class="st1" cx="646.12" cy="466.31" r="2.6"/>
						<circle class="st1" cx="654.39" cy="483.66" r="2.28"/>
						<circle class="st1" cx="659.84" cy="502.1" r="1.95"/>
						<circle class="st1" cx="662.34" cy="521.17" r="1.63"/>
						<circle class="st1" cx="661.85" cy="540.39" r="1.3"/>
						<circle class="st1" cx="658.36" cy="559.29" r="0.98"/>
						<circle class="st1" cx="651.96" cy="577.42" r="0.65"/>
						<circle class="st1" cx="642.77" cy="594.31" r="0.33"/>
						<path class="st1" d="M631.04,609.57"/>
					</g>
				</g>
				<g>
					<g>
						<circle class="st1" cx="631.04" cy="609.57" r="6.5"/>
						<circle class="st1" cx="617.11" cy="622.81" r="6.18"/>
						<circle class="st1" cx="601.27" cy="633.72" r="5.85"/>
						<circle class="st1" cx="583.92" cy="641.99" r="5.53"/>
						<circle class="st1" cx="565.48" cy="647.43" r="5.2"/>
						
							<ellipse transform="matrix(0.822 -0.5695 0.5695 0.822 -272.8779 426.9073)" class="st1" cx="546.42" cy="649.93" rx="4.88" ry="4.88"/>
						<circle class="st1" cx="527.2" cy="649.44" r="4.55"/>
						<circle class="st1" cx="508.29" cy="645.95" r="4.23"/>
						<circle class="st1" cx="490.16" cy="639.54" r="3.9"/>
						<circle class="st1" cx="473.27" cy="630.36" r="3.58"/>
						<circle class="st1" cx="458.03" cy="618.64" r="3.25"/>
						
							<ellipse transform="matrix(0.6691 -0.7431 0.7431 0.6691 -302.2185 530.6158)" class="st1" cx="444.78" cy="604.7" rx="2.93" ry="2.93"/>
						<circle class="st1" cx="433.88" cy="588.87" r="2.6"/>
						<circle class="st1" cx="425.61" cy="571.51" r="2.28"/>
						<circle class="st1" cx="420.16" cy="553.08" r="1.95"/>
						<circle class="st1" cx="417.66" cy="534.01" r="1.63"/>
						
							<ellipse transform="matrix(0.6691 -0.7431 0.7431 0.6691 -244.2128 481.076)" class="st1" cx="418.15" cy="514.79" rx="1.3" ry="1.3"/>
						<circle class="st1" cx="421.64" cy="495.89" r="0.98"/>
						<circle class="st1" cx="428.04" cy="477.76" r="0.65"/>
						<circle class="st1" cx="437.23" cy="460.87" r="0.33"/>
						<path class="st1" d="M448.96,445.61"/>
					</g>
				</g>
			</g>
		</g>
		<g>
			<g>
				<g>
					<g>
						<circle class="st1" cx="474.01" cy="408.53" r="7.22"/>
						<circle class="st1" cx="493.44" cy="399.66" r="6.86"/>
						<circle class="st1" cx="514.02" cy="393.93" r="6.5"/>
						<circle class="st1" cx="535.24" cy="391.52" r="6.14"/>
						<circle class="st1" cx="556.58" cy="392.47" r="5.78"/>
						
							<ellipse transform="matrix(0.9181 -0.3963 0.3963 0.9181 -109.9362 261.3297)" class="st1" cx="577.52" cy="396.74" rx="5.42" ry="5.42"/>
						<circle class="st1" cx="597.53" cy="404.21" r="5.06"/>
						<circle class="st1" cx="616.13" cy="414.71" r="4.7"/>
						<circle class="st1" cx="632.86" cy="428" r="4.33"/>
						<circle class="st1" cx="647.28" cy="443.76" r="3.97"/>
						<circle class="st1" cx="659.05" cy="461.59" r="3.61"/>
						<circle class="st1" cx="667.93" cy="481.02" r="3.25"/>
						<circle class="st1" cx="673.66" cy="501.6" r="2.89"/>
						<circle class="st1" cx="676.07" cy="522.82" r="2.53"/>
						<circle class="st1" cx="675.12" cy="544.17" r="2.17"/>
						<circle class="st1" cx="670.85" cy="565.1" r="1.81"/>
						<circle class="st1" cx="663.38" cy="585.11" r="1.44"/>
						<circle class="st1" cx="652.88" cy="603.71" r="1.08"/>
						<circle class="st1" cx="639.59" cy="620.44" r="0.72"/>
						<circle class="st1" cx="623.83" cy="634.86" r="0.36"/>
						<path class="st1" d="M605.99,646.65"/>
					</g>
				</g>
				<g>
					<g>
						<circle class="st1" cx="605.99" cy="646.65" r="7.22"/>
						<circle class="st1" cx="586.56" cy="655.52" r="6.86"/>
						<circle class="st1" cx="565.98" cy="661.25" r="6.5"/>
						<circle class="st1" cx="544.76" cy="663.66" r="6.14"/>
						<circle class="st1" cx="523.42" cy="662.71" r="5.78"/>
						
							<ellipse transform="matrix(0.9626 -0.2709 0.2709 0.9626 -159.5793 160.7394)" class="st1" cx="502.48" cy="658.44" rx="5.42" ry="5.42"/>
						<circle class="st1" cx="482.47" cy="650.97" r="5.06"/>
						<circle class="st1" cx="463.87" cy="640.47" r="4.7"/>
						<circle class="st1" cx="447.14" cy="627.18" r="4.33"/>
						<circle class="st1" cx="432.72" cy="611.42" r="3.97"/>
						<circle class="st1" cx="420.95" cy="593.59" r="3.61"/>
						
							<ellipse transform="matrix(0.8746 -0.4848 0.4848 0.8746 -226.6931 271.7641)" class="st1" cx="412.07" cy="574.16" rx="3.25" ry="3.25"/>
						<circle class="st1" cx="406.34" cy="553.58" r="2.89"/>
						<circle class="st1" cx="403.93" cy="532.36" r="2.53"/>
						<circle class="st1" cx="404.88" cy="511.01" r="2.17"/>
						<circle class="st1" cx="409.15" cy="490.08" r="1.81"/>
						
							<ellipse transform="matrix(0.8746 -0.4848 0.4848 0.8746 -175.658 260.9172)" class="st1" cx="416.62" cy="470.07" rx="1.44" ry="1.44"/>
						<circle class="st1" cx="427.12" cy="451.47" r="1.08"/>
						<circle class="st1" cx="440.41" cy="434.74" r="0.72"/>
						<circle class="st1" cx="456.17" cy="420.32" r="0.36"/>
						<path class="st1" d="M474.01,408.53"/>
					</g>
				</g>
			</g>
		</g>
		<g>
			<g>
				<g>
					<g>
						<circle class="st1" cx="513.74" cy="378.64" r="8.03"/>
						
							<ellipse transform="matrix(0.9999 -0.0137 0.0137 0.9999 -5.0897 7.3739)" class="st1" cx="537.36" cy="376.34" rx="7.63" ry="7.63"/>
						<circle class="st1" cx="561.05" cy="377.77" r="7.22"/>
						<circle class="st1" cx="584.22" cy="382.92" r="6.82"/>
						<circle class="st1" cx="606.3" cy="391.64" r="6.42"/>
						
							<ellipse transform="matrix(0.9971 -0.0758 0.0758 0.9971 -28.7833 48.6441)" class="st1" cx="626.75" cy="403.69" rx="6.02" ry="6.02"/>
						<circle class="st1" cx="645.07" cy="418.78" r="5.62"/>
						<circle class="st1" cx="660.81" cy="436.54" r="5.22"/>
						<circle class="st1" cx="673.58" cy="456.56" r="4.82"/>
						<circle class="st1" cx="683.02" cy="478.33" r="4.41"/>
						<circle class="st1" cx="688.95" cy="501.32" r="4.01"/>
						<circle class="st1" cx="691.25" cy="524.94" r="3.61"/>
						<circle class="st1" cx="689.82" cy="548.63" r="3.21"/>
						<circle class="st1" cx="684.67" cy="571.8" r="2.81"/>
						<circle class="st1" cx="675.96" cy="593.88" r="2.41"/>
						<circle class="st1" cx="663.9" cy="614.33" r="2.01"/>
						<circle class="st1" cx="648.82" cy="632.65" r="1.61"/>
						<circle class="st1" cx="631.05" cy="648.4" r="1.2"/>
						<circle class="st1" cx="611.04" cy="661.16" r="0.8"/>
						<circle class="st1" cx="589.27" cy="670.61" r="0.4"/>
						<path class="st1" d="M566.26,676.54"/>
					</g>
				</g>
				<g>
					<g>
						<circle class="st1" cx="566.26" cy="676.54" r="8.03"/>
						<circle class="st1" cx="542.64" cy="678.84" r="7.63"/>
						<circle class="st1" cx="518.95" cy="677.41" r="7.22"/>
						<circle class="st1" cx="495.78" cy="672.26" r="6.82"/>
						<circle class="st1" cx="473.7" cy="663.54" r="6.42"/>
						
							<ellipse transform="matrix(0.0573 -0.9984 0.9984 0.0573 -223.1197 1066.6913)" class="st1" cx="453.25" cy="651.49" rx="6.02" ry="6.02"/>
						<circle class="st1" cx="434.93" cy="636.4" r="5.62"/>
						<circle class="st1" cx="419.19" cy="618.64" r="5.22"/>
						<circle class="st1" cx="406.42" cy="598.62" r="4.82"/>
						<circle class="st1" cx="396.98" cy="576.85" r="4.41"/>
						<circle class="st1" cx="391.05" cy="553.86" r="4.01"/>
						
							<ellipse transform="matrix(0.9848 -0.1736 0.1736 0.9848 -86.1689 75.5618)" class="st1" cx="388.75" cy="530.24" rx="3.61" ry="3.61"/>
						<circle class="st1" cx="390.18" cy="506.55" r="3.21"/>
						<circle class="st1" cx="395.33" cy="483.37" r="2.81"/>
						<circle class="st1" cx="404.04" cy="461.3" r="2.41"/>
						<circle class="st1" cx="416.1" cy="440.85" r="2.01"/>
						
							<ellipse transform="matrix(0.9848 -0.1736 0.1736 0.9848 -66.8202 81.2936)" class="st1" cx="431.18" cy="422.53" rx="1.61" ry="1.61"/>
						<circle class="st1" cx="448.95" cy="406.78" r="1.2"/>
						<circle class="st1" cx="468.96" cy="394.02" r="0.8"/>
						<circle class="st1" cx="490.73" cy="384.57" r="0.4"/>
						<path class="st1" d="M513.74,378.64"/>
					</g>
				</g>
			</g>
		</g>
		<g>
			<g>
				<g>
					<g>
						<circle class="st1" cx="566.29" cy="361.61" r="8.92"/>
						
							<ellipse transform="matrix(0.3126 -0.9499 0.9499 0.3126 57.5785 815.0447)" class="st1" cx="591.94" cy="367.74" rx="8.47" ry="8.47"/>
						<circle class="st1" cx="616.31" cy="377.81" r="8.03"/>
						<circle class="st1" cx="638.8" cy="391.6" r="7.58"/>
						<circle class="st1" cx="658.83" cy="408.74" r="7.14"/>
						
							<ellipse transform="matrix(0.253 -0.9675 0.9675 0.253 90.0838 974.2831)" class="st1" cx="675.95" cy="428.81" rx="6.69" ry="6.69"/>
						<circle class="st1" cx="689.75" cy="451.29" r="6.24"/>
						<circle class="st1" cx="699.86" cy="475.64" r="5.8"/>
						<circle class="st1" cx="706.03" cy="501.28" r="5.35"/>
						<circle class="st1" cx="708.08" cy="527.58" r="4.91"/>
						<circle class="st1" cx="705.99" cy="553.87" r="4.46"/>
						<circle class="st1" cx="699.85" cy="579.52" r="4.01"/>
						<circle class="st1" cx="689.78" cy="603.89" r="3.57"/>
						<circle class="st1" cx="676" cy="626.38" r="3.12"/>
						<circle class="st1" cx="658.85" cy="646.42" r="2.68"/>
						<circle class="st1" cx="638.79" cy="663.54" r="2.23"/>
						<circle class="st1" cx="616.31" cy="677.33" r="1.78"/>
						<circle class="st1" cx="591.96" cy="687.45" r="1.34"/>
						<circle class="st1" cx="566.32" cy="693.62" r="0.89"/>
						<circle class="st1" cx="540.02" cy="695.67" r="0.45"/>
						<path class="st1" d="M513.71,693.57"/>
					</g>
				</g>
				<g>
					<g>
						<circle class="st1" cx="513.71" cy="693.57" r="8.92"/>
						<circle class="st1" cx="488.06" cy="687.44" r="8.47"/>
						<circle class="st1" cx="463.69" cy="677.37" r="8.03"/>
						<circle class="st1" cx="441.2" cy="663.58" r="7.58"/>
						<circle class="st1" cx="421.17" cy="646.43" r="7.14"/>
						
							<ellipse transform="matrix(0.3792 -0.9253 0.9253 0.3792 -328.7569 762.7418)" class="st1" cx="404.05" cy="626.37" rx="6.69" ry="6.69"/>
						<circle class="st1" cx="390.25" cy="603.89" r="6.24"/>
						<circle class="st1" cx="380.14" cy="579.54" r="5.8"/>
						<circle class="st1" cx="373.97" cy="553.89" r="5.35"/>
						<circle class="st1" cx="371.92" cy="527.6" r="4.91"/>
						
							<ellipse transform="matrix(0.5225 -0.8526 0.8526 0.5225 -248.8459 558.2762)" class="st1" cx="374.01" cy="501.31" rx="4.46" ry="4.46"/>
						
							<ellipse transform="matrix(0.1564 -0.9877 0.9877 0.1564 -149.1261 776.716)" class="st1" cx="380.15" cy="475.66" rx="4.01" ry="4.01"/>
						
							<ellipse transform="matrix(0.9724 -0.2334 0.2334 0.9724 -94.5688 103.5634)" class="st1" cx="390.22" cy="451.29" rx="3.57" ry="3.57"/>
						<circle class="st1" cx="404" cy="428.8" r="3.12"/>
						<circle class="st1" cx="421.15" cy="408.76" r="2.68"/>
						<circle class="st1" cx="441.21" cy="391.64" r="2.23"/>
						
							<ellipse transform="matrix(0.1564 -0.9877 0.9877 0.1564 17.9531 776.719)" class="st1" cx="463.69" cy="377.85" rx="1.78" ry="1.78"/>
						<circle class="st1" cx="488.04" cy="367.73" r="1.34"/>
						<circle class="st1" cx="513.68" cy="361.56" r="0.89"/>
						<circle class="st1" cx="539.98" cy="359.51" r="0.45"/>
						<path class="st1" d="M566.29,361.61"/>
					</g>
				</g>
			</g>
		</g>
		<g>
			<g>
				<g>
					<g>
						<circle class="st1" cx="627.66" cy="362.72" r="9.91"/>
						
							<ellipse transform="matrix(0.6048 -0.7963 0.7963 0.6048 -43.5736 669.0741)" class="st1" cx="652.39" cy="378.44" rx="9.41" ry="9.41"/>
						<circle class="st1" cx="674.35" cy="397.84" r="8.92"/>
						<circle class="st1" cx="692.99" cy="420.46" r="8.42"/>
						<circle class="st1" cx="707.84" cy="445.72" r="7.93"/>
						
							<ellipse transform="matrix(0.5542 -0.8324 0.8324 0.5542 -73.3698 808.99)" class="st1" cx="718.56" cy="472.99" rx="7.43" ry="7.43"/>
						<circle class="st1" cx="724.92" cy="501.6" r="6.94"/>
						<circle class="st1" cx="726.74" cy="530.84" r="6.44"/>
						
							<ellipse transform="matrix(0.3802 -0.9249 0.9249 0.3802 -69.2521 1016.6857)" class="st1" cx="723.94" cy="560.01" rx="5.95" ry="5.95"/>
						<circle class="st1" cx="716.58" cy="588.38" r="5.45"/>
						<circle class="st1" cx="704.87" cy="615.24" r="4.95"/>
						<circle class="st1" cx="689.15" cy="639.97" r="4.46"/>
						<circle class="st1" cx="669.76" cy="661.94" r="3.96"/>
						<circle class="st1" cx="647.14" cy="680.57" r="3.47"/>
						<circle class="st1" cx="621.88" cy="695.42" r="2.97"/>
						<circle class="st1" cx="594.61" cy="706.15" r="2.48"/>
						<circle class="st1" cx="566.01" cy="712.51" r="1.98"/>
						<circle class="st1" cx="536.76" cy="714.33" r="1.49"/>
						<circle class="st1" cx="507.59" cy="711.53" r="0.99"/>
						<circle class="st1" cx="479.22" cy="704.18" r="0.5"/>
						<path class="st1" d="M452.34,692.46"/>
					</g>
				</g>
				<g>
					<g>
						<circle class="st1" cx="452.34" cy="692.46" r="9.91"/>
						<circle class="st1" cx="427.61" cy="676.74" r="9.41"/>
						<circle class="st1" cx="405.65" cy="657.34" r="8.92"/>
						<circle class="st1" cx="387.01" cy="634.72" r="8.42"/>
						<circle class="st1" cx="372.16" cy="609.46" r="7.93"/>
						
							<ellipse transform="matrix(0.6598 -0.7515 0.7515 0.6598 -314.5242 469.6824)" class="st1" cx="361.44" cy="582.19" rx="7.43" ry="7.43"/>
						
							<ellipse transform="matrix(0.4695 -0.8829 0.8829 0.4695 -300.4047 607.2073)" class="st1" cx="355.08" cy="553.58" rx="6.94" ry="6.94"/>
						<circle class="st1" cx="353.26" cy="524.34" r="6.44"/>
						<circle class="st1" cx="356.06" cy="495.17" r="5.95"/>
						<circle class="st1" cx="363.42" cy="466.8" r="5.45"/>
						
							<ellipse transform="matrix(0.7716 -0.6361 0.6361 0.7716 -194.1657 339.0798)" class="st1" cx="375.13" cy="439.94" rx="4.95" ry="4.95"/>
						
							<ellipse transform="matrix(0.4695 -0.8829 0.8829 0.4695 -159.2517 565.376)" class="st1" cx="390.85" cy="415.21" rx="4.46" ry="4.46"/>
						
							<ellipse transform="matrix(0.0958 -0.9954 0.9954 0.0958 -20.5098 763.9087)" class="st1" cx="410.24" cy="393.24" rx="3.96" ry="3.96"/>
						<circle class="st1" cx="432.86" cy="374.61" r="3.47"/>
						<circle class="st1" cx="458.12" cy="359.76" r="2.97"/>
						<circle class="st1" cx="485.39" cy="349.03" r="2.48"/>
						
							<ellipse transform="matrix(0.4695 -0.8829 0.8829 0.4695 -29.8711 635.627)" class="st1" cx="513.99" cy="342.67" rx="1.98" ry="1.98"/>
						<circle class="st1" cx="543.24" cy="340.85" r="1.49"/>
						<circle class="st1" cx="572.41" cy="343.65" r="0.99"/>
						<circle class="st1" cx="600.78" cy="351" r="0.5"/>
						<path class="st1" d="M627.66,362.72"/>
					</g>
				</g>
			</g>
		</g>
		<g>
			<g>
				<g>
					<g>
						<circle class="st1" cx="691.74" cy="386.09" r="11.01"/>
						
							<ellipse transform="matrix(0.8312 -0.556 0.556 0.8312 -108.6198 465.4077)" class="st1" cx="712.03" cy="411.56" rx="10.46" ry="10.46"/>
						<circle class="st1" cx="728.08" cy="439.88" r="9.91"/>
						<circle class="st1" cx="739.48" cy="470.38" r="9.36"/>
						<circle class="st1" cx="745.94" cy="502.29" r="8.81"/>
						
							<ellipse transform="matrix(0.795 -0.6066 0.6066 0.795 -171.2231 562.9909)" class="st1" cx="747.35" cy="534.82" rx="8.26" ry="8.26"/>
						<circle class="st1" cx="743.68" cy="567.18" r="7.71"/>
						<circle class="st1" cx="735" cy="598.56" r="7.16"/>
						
							<ellipse transform="matrix(0.6606 -0.7507 0.7507 0.6606 -226.7242 754.8867)" class="st1" cx="721.51" cy="628.19" rx="6.61" ry="6.61"/>
						<circle class="st1" cx="703.52" cy="655.33" r="6.06"/>
						<circle class="st1" cx="681.51" cy="679.32" r="5.51"/>
						<circle class="st1" cx="656.04" cy="699.61" r="4.95"/>
						<circle class="st1" cx="627.72" cy="715.67" r="4.4"/>
						<circle class="st1" cx="597.22" cy="727.06" r="3.85"/>
						<circle class="st1" cx="565.31" cy="733.53" r="3.3"/>
						<circle class="st1" cx="532.78" cy="734.94" r="2.75"/>
						<circle class="st1" cx="500.43" cy="731.27" r="2.2"/>
						<circle class="st1" cx="469.04" cy="722.6" r="1.65"/>
						
							<ellipse transform="matrix(0.8685 -0.4957 0.4957 0.8685 -293.7318 311.0876)" class="st1" cx="439.41" cy="709.11" rx="1.1" ry="1.1"/>
						<circle class="st1" cx="412.27" cy="691.12" r="0.55"/>
						<path class="st1" d="M388.26,669.09"/>
					</g>
				</g>
				<g>
					<g>
						<circle class="st1" cx="388.26" cy="669.09" r="11.01"/>
						<circle class="st1" cx="367.97" cy="643.62" r="10.46"/>
						<circle class="st1" cx="351.92" cy="615.3" r="9.91"/>
						<circle class="st1" cx="340.52" cy="584.8" r="9.36"/>
						<circle class="st1" cx="334.06" cy="552.88" r="8.81"/>
						
							<ellipse transform="matrix(0.8685 -0.4957 0.4957 0.8685 -214.2019 233.341)" class="st1" cx="332.65" cy="520.36" rx="8.26" ry="8.26"/>
						
							<ellipse transform="matrix(0.7314 -0.682 0.682 0.7314 -242.4653 360.4725)" class="st1" cx="336.32" cy="488" rx="7.71" ry="7.71"/>
						
							<ellipse transform="matrix(0.2636 -0.9646 0.9646 0.2636 -186.4109 669.0607)" class="st1" cx="345" cy="456.62" rx="7.16" ry="7.16"/>
						
							<ellipse transform="matrix(0.2636 -0.9646 0.9646 0.2636 -147.8917 660.2514)" class="st1" cx="358.49" cy="426.99" rx="6.61" ry="6.61"/>
						
							<ellipse transform="matrix(0.2636 -0.9646 0.9646 0.2636 -108.4653 657.621)" class="st1" cx="376.48" cy="399.85" rx="6.06" ry="6.06"/>
						
							<ellipse transform="matrix(0.9367 -0.3502 0.3502 0.9367 -106.3942 163.3578)" class="st1" cx="398.49" cy="375.86" rx="5.51" ry="5.51"/>
						
							<ellipse transform="matrix(0.7314 -0.682 0.682 0.7314 -128.603 384.6592)" class="st1" cx="423.96" cy="355.57" rx="4.95" ry="4.95"/>
						
							<ellipse transform="matrix(0.4147 -0.91 0.91 0.4147 -44.2196 610.2755)" class="st1" cx="452.28" cy="339.51" rx="4.4" ry="4.4"/>
						<circle class="st1" cx="482.78" cy="328.12" r="3.85"/>
						<circle class="st1" cx="514.69" cy="321.65" r="3.3"/>
						<circle class="st1" cx="547.22" cy="320.24" r="2.75"/>
						
							<ellipse transform="matrix(0.7314 -0.682 0.682 0.7314 -65.2065 482.2851)" class="st1" cx="579.57" cy="323.91" rx="2.2" ry="2.2"/>
						<circle class="st1" cx="610.96" cy="332.58" r="1.65"/>
						<circle class="st1" cx="640.59" cy="346.07" r="1.1"/>
						<circle class="st1" cx="667.73" cy="364.06" r="0.55"/>
						<path class="st1" d="M691.74,386.09"/>
					</g>
				</g>
			</g>
		</g>
		<g>
			<g>
				<g>
					<g>
						<circle class="st1" cx="750.6" cy="433.83" r="12.23"/>
						
							<ellipse transform="matrix(0.9669 -0.2552 0.2552 0.9669 -94.1453 210.092)" class="st1" cx="762.7" cy="467.92" rx="11.62" ry="11.62"/>
						<circle class="st1" cx="769.32" cy="503.48" r="11.01"/>
						<circle class="st1" cx="770.26" cy="539.65" r="10.4"/>
						
							<ellipse transform="matrix(0.9135 -0.4067 0.4067 0.9135 -167.9007 361.1151)" class="st1" cx="765.51" cy="575.51" rx="9.79" ry="9.79"/>
						
							<ellipse transform="matrix(0.9492 -0.3147 0.3147 0.9492 -153.6708 268.7067)" class="st1" cx="755.22" cy="610.2" rx="9.18" ry="9.18"/>
						<circle class="st1" cx="739.66" cy="642.86" r="8.56"/>
						<circle class="st1" cx="719.19" cy="672.69" r="7.95"/>
						
							<ellipse transform="matrix(0.869 -0.4948 0.4948 0.869 -254.88 435.0709)" class="st1" cx="694.3" cy="698.94" rx="7.34" ry="7.34"/>
						
							<ellipse transform="matrix(0.9135 -0.4067 0.4067 0.9135 -235.6913 333.047)" class="st1" cx="665.59" cy="720.94" rx="6.73" ry="6.73"/>
						<circle class="st1" cx="633.78" cy="738.18" r="6.12"/>
						<circle class="st1" cx="599.69" cy="750.29" r="5.51"/>
						<circle class="st1" cx="564.12" cy="756.91" r="4.89"/>
						<circle class="st1" cx="527.96" cy="757.85" r="4.28"/>
						<circle class="st1" cx="492.09" cy="753.1" r="3.67"/>
						<circle class="st1" cx="457.41" cy="742.81" r="3.06"/>
						<circle class="st1" cx="424.75" cy="727.25" r="2.45"/>
						<circle class="st1" cx="394.91" cy="706.79" r="1.84"/>
						
							<ellipse transform="matrix(0.9826 -0.186 0.186 0.9826 -120.3801 80.453)" class="st1" cx="368.66" cy="681.9" rx="1.22" ry="1.22"/>
						<circle class="st1" cx="346.65" cy="653.19" r="0.61"/>
						<path class="st1" d="M329.4,621.35"/>
					</g>
				</g>
				<g>
					<g>
						<circle class="st1" cx="329.4" cy="621.35" r="12.23"/>
						<circle class="st1" cx="317.3" cy="587.26" r="11.62"/>
						<circle class="st1" cx="310.68" cy="551.69" r="11.01"/>
						<circle class="st1" cx="309.74" cy="515.53" r="10.4"/>
						
							<ellipse transform="matrix(0.9135 -0.4067 0.4067 0.9135 -167.9085 169.3857)" class="st1" cx="314.49" cy="479.67" rx="9.79" ry="9.79"/>
						
							<ellipse transform="matrix(0.9826 -0.186 0.186 0.9826 -77.0864 68.161)" class="st1" cx="324.78" cy="444.98" rx="9.18" ry="9.18"/>
						
							<ellipse transform="matrix(0.9135 -0.4067 0.4067 0.9135 -138.2826 174.077)" class="st1" cx="340.34" cy="412.32" rx="8.56" ry="8.56"/>
						
							<ellipse transform="matrix(0.5633 -0.8263 0.8263 0.5633 -158.4664 465.1662)" class="st1" cx="360.81" cy="382.49" rx="7.95" ry="7.95"/>
						
							<ellipse transform="matrix(0.5633 -0.8263 0.8263 0.5633 -125.9046 474.2686)" class="st1" cx="385.7" cy="356.24" rx="7.34" ry="7.34"/>
						
							<ellipse transform="matrix(0.5633 -0.8263 0.8263 0.5633 -95.1834 488.3878)" class="st1" cx="414.41" cy="334.24" rx="6.73" ry="6.73"/>
						
							<ellipse transform="matrix(0.9997 -0.0262 0.0262 0.9997 -8.1451 11.7892)" class="st1" cx="446.22" cy="317" rx="6.12" ry="6.12"/>
						
							<ellipse transform="matrix(0.9135 -0.4067 0.4067 0.9135 -82.4847 221.7204)" class="st1" cx="480.31" cy="304.89" rx="5.51" ry="5.51"/>
						
							<ellipse transform="matrix(0.6884 -0.7254 0.7254 0.6884 -55.5838 467.1591)" class="st1" cx="515.88" cy="298.27" rx="4.89" ry="4.89"/>
						
							<ellipse transform="matrix(0.3584 -0.9336 0.9336 0.3584 76.6278 706.1538)" class="st1" cx="552.04" cy="297.33" rx="4.28" ry="4.28"/>
						<circle class="st1" cx="587.91" cy="302.08" r="3.67"/>
						
							<ellipse transform="matrix(0.3584 -0.9336 0.9336 0.3584 107.8548 781.6647)" class="st1" cx="622.59" cy="312.37" rx="3.06" ry="3.06"/>
						
							<ellipse transform="matrix(0.9135 -0.4067 0.4067 0.9135 -76.7293 294.8662)" class="st1" cx="655.25" cy="327.92" rx="2.45" ry="2.45"/>
						<circle class="st1" cx="685.09" cy="348.39" r="1.84"/>
						<circle class="st1" cx="711.34" cy="373.28" r="1.22"/>
						<circle class="st1" cx="733.35" cy="401.99" r="0.61"/>
						<path class="st1" d="M750.6,433.83"/>
					</g>
				</g>
			</g>
		</g>
		<g>
			<g>
				<g>
					<g>
						<circle class="st1" cx="795.16" cy="505.27" r="13.59"/>
						
							<ellipse transform="matrix(0.0735 -0.9973 0.9973 0.0735 193.0611 1298.7454)" class="st1" cx="795.55" cy="545.46" rx="12.91" ry="12.91"/>
						<circle class="st1" cx="789.64" cy="585.22" r="12.23"/>
						<circle class="st1" cx="777.54" cy="623.55" r="11.55"/>
						
							<ellipse transform="matrix(0.9962 -0.0872 0.0872 0.9962 -54.5899 68.7111)" class="st1" cx="759.58" cy="659.51" rx="10.88" ry="10.88"/>
						
							<ellipse transform="matrix(0.0114 -0.9999 0.9999 0.0114 35.6215 1420.4849)" class="st1" cx="736.22" cy="692.23" rx="10.2" ry="10.2"/>
						<circle class="st1" cx="708.06" cy="720.91" r="9.52"/>
						<circle class="st1" cx="675.77" cy="744.85" r="8.84"/>
						
							<ellipse transform="matrix(0.9828 -0.1849 0.1849 0.9828 -130.1163 131.5174)" class="st1" cx="640.12" cy="763.43" rx="8.16" ry="8.16"/>
						
							<ellipse transform="matrix(0.9962 -0.0872 0.0872 0.9962 -65.3554 55.4206)" class="st1" cx="601.99" cy="776.15" rx="7.48" ry="7.48"/>
						<circle class="st1" cx="562.34" cy="782.75" r="6.8"/>
						<circle class="st1" cx="522.14" cy="783.14" r="6.12"/>
						<circle class="st1" cx="482.38" cy="777.24" r="5.44"/>
						<circle class="st1" cx="444.05" cy="765.14" r="4.76"/>
						<circle class="st1" cx="408.09" cy="747.17" r="4.08"/>
						<circle class="st1" cx="375.38" cy="723.82" r="3.4"/>
						<circle class="st1" cx="346.69" cy="695.66" r="2.72"/>
						<circle class="st1" cx="322.75" cy="663.37" r="2.04"/>
						
							<ellipse transform="matrix(0.1441 -0.9896 0.9896 0.1441 -360.8257 838.2981)" class="st1" cx="304.17" cy="627.73" rx="1.36" ry="1.36"/>
						<circle class="st1" cx="291.44" cy="589.6" r="0.68"/>
						<path class="st1" d="M284.84,549.91"/>
					</g>
				</g>
				<g>
					<g>
						<circle class="st1" cx="284.84" cy="549.91" r="13.59"/>
						<circle class="st1" cx="284.45" cy="509.72" r="12.91"/>
						<circle class="st1" cx="290.36" cy="469.96" r="12.23"/>
						
							<ellipse transform="matrix(0.9962 -0.0872 0.0872 0.9962 -36.4677 28.0034)" class="st1" cx="302.46" cy="431.63" rx="11.55" ry="11.55"/>
						
							<ellipse transform="matrix(0.9962 -0.0872 0.0872 0.9962 -33.2654 29.4325)" class="st1" cx="320.42" cy="395.67" rx="10.88" ry="10.88"/>
						
							<ellipse transform="matrix(0.1441 -0.9896 0.9896 0.1441 -64.9089 650.8625)" class="st1" cx="343.78" cy="362.95" rx="10.2" ry="10.2"/>
						
							<ellipse transform="matrix(0.9962 -0.0872 0.0872 0.9962 -27.7181 33.6888)" class="st1" cx="371.94" cy="334.27" rx="9.52" ry="9.52"/>
						
							<ellipse transform="matrix(0.8016 -0.5979 0.5979 0.8016 -105.3339 303.2492)" class="st1" cx="404.23" cy="310.33" rx="8.84" ry="8.84"/>
						
							<ellipse transform="matrix(0.8016 -0.5979 0.5979 0.8016 -87.1559 320.876)" class="st1" cx="439.88" cy="291.75" rx="8.16" ry="8.16"/>
						
							<ellipse transform="matrix(0.8016 -0.5979 0.5979 0.8016 -71.9819 341.1468)" class="st1" cx="478.01" cy="279.03" rx="7.48" ry="7.48"/>
						
							<ellipse transform="matrix(0.3007 -0.9537 0.9537 0.3007 102.1781 684.2062)" class="st1" cx="517.66" cy="272.43" rx="6.8" ry="6.8"/>
						
							<ellipse transform="matrix(0.9962 -0.0872 0.0872 0.9962 -21.5867 49.6554)" class="st1" cx="557.86" cy="272.04" rx="6.12" ry="6.12"/>
						
							<ellipse transform="matrix(0.887 -0.4617 0.4617 0.887 -60.8159 307.3524)" class="st1" cx="597.62" cy="277.94" rx="5.44" ry="5.44"/>
						
							<ellipse transform="matrix(0.6428 -0.766 0.766 0.6428 4.9842 590.7706)" class="st1" cx="635.95" cy="290.04" rx="4.76" ry="4.76"/>
						<circle class="st1" cx="671.91" cy="308.01" r="4.08"/>
						
							<ellipse transform="matrix(0.6428 -0.766 0.766 0.6428 -2.1356 658.1392)" class="st1" cx="704.62" cy="331.36" rx="3.4" ry="3.4"/>
						
							<ellipse transform="matrix(0.9962 -0.0872 0.0872 0.9962 -28.5436 65.2803)" class="st1" cx="733.31" cy="359.52" rx="2.72" ry="2.72"/>
						<circle class="st1" cx="757.25" cy="391.81" r="2.04"/>
						<circle class="st1" cx="775.83" cy="427.45" r="1.36"/>
						<circle class="st1" cx="788.56" cy="465.58" r="0.68"/>
						<path class="st1" d="M795.16,505.27"/>
					</g>
				</g>
			</g>
		</g>
		<g>
			<g>
				<g>
					<g>
						<circle class="st1" cx="816.15" cy="596.44" r="15.1"/>
						
							<ellipse transform="matrix(0.3942 -0.919 0.919 0.3942 -101.2346 1124.0382)" class="st1" cx="802.01" cy="638.81" rx="14.35" ry="14.35"/>
						<circle class="st1" cx="781.42" cy="678.44" r="13.59"/>
						<circle class="st1" cx="754.84" cy="714.34" r="12.84"/>
						
							<ellipse transform="matrix(0.2419 -0.9703 0.9703 0.2419 -175.406 1266.717)" class="st1" cx="722.96" cy="745.61" rx="12.08" ry="12.08"/>
						
							<ellipse transform="matrix(0.3364 -0.9417 0.9417 0.3364 -270.9314 1158.6077)" class="st1" cx="686.59" cy="771.53" rx="11.33" ry="11.33"/>
						<circle class="st1" cx="646.63" cy="791.48" r="10.57"/>
						
							<ellipse transform="matrix(0.3942 -0.919 0.919 0.3942 -373.8474 1042.7465)" class="st1" cx="604.04" cy="804.95" rx="9.82" ry="9.82"/>
						
							<ellipse transform="matrix(0.1451 -0.9894 0.9894 0.1451 -324.3617 1247.7301)" class="st1" cx="559.87" cy="811.57" rx="9.06" ry="9.06"/>
						
							<ellipse transform="matrix(0.2419 -0.9703 0.9703 0.2419 -396.4831 1114.8229)" class="st1" cx="515.21" cy="811.15" rx="8.31" ry="8.31"/>
						<circle class="st1" cx="471.17" cy="803.74" r="7.55"/>
						<circle class="st1" cx="428.8" cy="789.61" r="6.8"/>
						
							<ellipse transform="matrix(0.3942 -0.919 0.919 0.3942 -470.9949 823.5021)" class="st1" cx="389.16" cy="769.02" rx="6.04" ry="6.04"/>
						<circle class="st1" cx="353.27" cy="742.44" r="5.29"/>
						<circle class="st1" cx="321.99" cy="710.56" r="4.53"/>
						<circle class="st1" cx="296.06" cy="674.19" r="3.78"/>
						
							<ellipse transform="matrix(0.5495 -0.8355 0.8355 0.5495 -405.5137 516.4478)" class="st1" cx="276.11" cy="634.23" rx="3.02" ry="3.02"/>
						<circle class="st1" cx="262.64" cy="591.65" r="2.27"/>
						
							<ellipse transform="matrix(0.4584 -0.8888 0.8888 0.4584 -347.9126 524.0671)" class="st1" cx="256.02" cy="547.48" rx="1.51" ry="1.51"/>
						<circle class="st1" cx="256.44" cy="502.82" r="0.76"/>
						<path class="st1" d="M263.85,458.74"/>
					</g>
				</g>
				<g>
					<g>
						<circle class="st1" cx="263.85" cy="458.74" r="15.1"/>
						<circle class="st1" cx="277.99" cy="416.37" r="14.35"/>
						<circle class="st1" cx="298.58" cy="376.74" r="13.59"/>
						
							<ellipse transform="matrix(0.2419 -0.9703 0.9703 0.2419 -84.2237 573.8853)" class="st1" cx="325.16" cy="340.84" rx="12.84" ry="12.84"/>
						
							<ellipse transform="matrix(0.2419 -0.9703 0.9703 0.2419 -29.7055 581.1107)" class="st1" cx="357.04" cy="309.57" rx="12.08" ry="12.08"/>
						
							<ellipse transform="matrix(0.4584 -0.8888 0.8888 0.4584 -39.0103 503.2768)" class="st1" cx="393.41" cy="283.64" rx="11.33" ry="11.33"/>
						
							<ellipse transform="matrix(0.2419 -0.9703 0.9703 0.2419 72.6673 620.4044)" class="st1" cx="433.37" cy="263.7" rx="10.57" ry="10.57"/>
						
							<ellipse transform="matrix(0.9526 -0.3043 0.3043 0.9526 -53.5748 156.7138)" class="st1" cx="475.96" cy="250.23" rx="9.82" ry="9.82"/>
						
							<ellipse transform="matrix(0.9526 -0.3043 0.3043 0.9526 -49.4654 169.8416)" class="st1" cx="520.13" cy="243.61" rx="9.06" ry="9.06"/>
						
							<ellipse transform="matrix(0.9526 -0.3043 0.3043 0.9526 -47.4756 183.4529)" class="st1" cx="564.79" cy="244.03" rx="8.31" ry="8.31"/>
						
							<ellipse transform="matrix(0.5948 -0.8039 0.8039 0.5948 44.5635 591.2914)" class="st1" cx="608.83" cy="251.44" rx="7.55" ry="7.55"/>
						
							<ellipse transform="matrix(0.2419 -0.9703 0.9703 0.2419 235.9811 833.1819)" class="st1" cx="651.2" cy="265.57" rx="6.8" ry="6.8"/>
						
							<ellipse transform="matrix(0.989 -0.1478 0.1478 0.989 -34.7087 105.2551)" class="st1" cx="690.84" cy="286.16" rx="6.04" ry="6.04"/>
						
							<ellipse transform="matrix(0.8572 -0.515 0.515 0.8572 -57.2694 418.9634)" class="st1" cx="726.73" cy="312.74" rx="5.29" ry="5.29"/>
						<circle class="st1" cx="758.01" cy="344.62" r="4.53"/>
						
							<ellipse transform="matrix(0.8572 -0.515 0.515 0.8572 -84.251 458.1737)" class="st1" cx="783.93" cy="380.99" rx="3.78" ry="3.78"/>
						
							<ellipse transform="matrix(0.2419 -0.9703 0.9703 0.2419 200.9653 1099.1167)" class="st1" cx="803.89" cy="420.95" rx="3.02" ry="3.02"/>
						<circle class="st1" cx="817.36" cy="463.53" r="2.27"/>
						<circle class="st1" cx="823.98" cy="507.7" r="1.51"/>
						<circle class="st1" cx="823.56" cy="552.36" r="0.76"/>
						<path class="st1" d="M816.15,596.44"/>
					</g>
				</g>
			</g>
		</g>
		<g>
			<g>
				<g>
					<g>
						<circle class="st1" cx="805.21" cy="699.82" r="16.78"/>
						
							<ellipse transform="matrix(0.6719 -0.7406 0.7406 0.6719 -293.2115 816.4899)" class="st1" cx="775.03" cy="739.22" rx="15.94" ry="15.94"/>
						
							<ellipse transform="matrix(0.8241 -0.5664 0.5664 0.8241 -308.0796 554.6302)" class="st1" cx="739.06" cy="773.4" rx="15.1" ry="15.1"/>
						
							<ellipse transform="matrix(0.8241 -0.5664 0.5664 0.8241 -331.1867 536.4015)" class="st1" cx="698.15" cy="801.5" rx="14.27" ry="14.27"/>
						
							<ellipse transform="matrix(0.5446 -0.8387 0.8387 0.5446 -392.571 922.6222)" class="st1" cx="653.34" cy="822.82" rx="13.43" ry="13.43"/>
						
							<ellipse transform="matrix(0.6246 -0.7809 0.7809 0.6246 -426.1694 787.1949)" class="st1" cx="605.76" cy="836.9" rx="12.59" ry="12.59"/>
						<circle class="st1" cx="556.56" cy="843.4" r="11.75"/>
						
							<ellipse transform="matrix(0.6719 -0.7406 0.7406 0.6719 -457.3876 651.7149)" class="st1" cx="506.95" cy="842.15" rx="10.91" ry="10.91"/>
						
							<ellipse transform="matrix(0.4593 -0.8883 0.8883 0.4593 -492.327 857.3846)" class="st1" cx="458.15" cy="833.12" rx="10.07" ry="10.07"/>
						
							<ellipse transform="matrix(0.5446 -0.8387 0.8387 0.5446 -497.4665 716.8282)" class="st1" cx="411.38" cy="816.52" rx="9.23" ry="9.23"/>
						<circle class="st1" cx="367.79" cy="792.81" r="8.39"/>
						<circle class="st1" cx="328.39" cy="762.63" r="7.55"/>
						
							<ellipse transform="matrix(0.6719 -0.7406 0.7406 0.6719 -441.6563 456.2691)" class="st1" cx="294.2" cy="726.67" rx="6.71" ry="6.71"/>
						<circle class="st1" cx="266.1" cy="685.76" r="5.87"/>
						<circle class="st1" cx="244.77" cy="640.95" r="5.03"/>
						
							<ellipse transform="matrix(0.8241 -0.5664 0.5664 0.8241 -295.5127 235.0245)" class="st1" cx="230.7" cy="593.37" rx="4.2" ry="4.2"/>
						
							<ellipse transform="matrix(0.7915 -0.6111 0.6111 0.7915 -285.8145 250.4423)" class="st1" cx="224.19" cy="544.17" rx="3.36" ry="3.36"/>
						<circle class="st1" cx="225.44" cy="494.56" r="2.52"/>
						
							<ellipse transform="matrix(0.7228 -0.6911 0.6911 0.7228 -243.0633 285.6209)" class="st1" cx="234.46" cy="445.76" rx="1.68" ry="1.68"/>
						<circle class="st1" cx="251.06" cy="398.99" r="0.84"/>
						<path class="st1" d="M274.79,355.36"/>
					</g>
				</g>
				<g>
					<g>
						<circle class="st1" cx="274.79" cy="355.36" r="16.78"/>
						<circle class="st1" cx="304.97" cy="315.96" r="15.94"/>
						<circle class="st1" cx="340.94" cy="281.77" r="15.1"/>
						
							<ellipse transform="matrix(0.5446 -0.8387 0.8387 0.5446 -38.877 435.7595)" class="st1" cx="381.85" cy="253.68" rx="14.27" ry="14.27"/>
						
							<ellipse transform="matrix(0.5446 -0.8387 0.8387 0.5446 -0.5869 463.6295)" class="st1" cx="426.66" cy="232.36" rx="13.43" ry="13.43"/>
						
							<ellipse transform="matrix(0.7228 -0.6911 0.6911 0.7228 -19.3729 388.2686)" class="st1" cx="474.24" cy="218.28" rx="12.59" ry="12.59"/>
						
							<ellipse transform="matrix(0.5446 -0.8387 0.8387 0.5446 60.7421 535.4321)" class="st1" cx="523.44" cy="211.78" rx="11.75" ry="11.75"/>
						
							<ellipse transform="matrix(0.0224 -0.9997 0.9997 0.0224 347.2467 781.173)" class="st1" cx="573.05" cy="213.03" rx="10.91" ry="10.91"/>
						
							<ellipse transform="matrix(0.0224 -0.9997 0.9997 0.0224 385.9308 838.7801)" class="st1" cx="621.85" cy="222.06" rx="10.07" ry="10.07"/>
						
							<ellipse transform="matrix(0.0224 -0.9997 0.9997 0.0224 415.0557 901.7629)" class="st1" cx="668.62" cy="238.66" rx="9.23" ry="9.23"/>
						
							<ellipse transform="matrix(0.8241 -0.5664 0.5664 0.8241 -23.3506 449.5438)" class="st1" cx="712.21" cy="262.37" rx="8.39" ry="8.39"/>
						
							<ellipse transform="matrix(0.5446 -0.8387 0.8387 0.5446 96.9054 763.5671)" class="st1" cx="751.61" cy="292.54" rx="7.55" ry="7.55"/>
						
							<ellipse transform="matrix(0.1822 -0.9833 0.9833 0.1822 319.5887 1041.2887)" class="st1" cx="785.8" cy="328.51" rx="6.71" ry="6.71"/>
						
							<ellipse transform="matrix(0.9781 -0.2079 0.2079 0.9781 -59.0206 177.2915)" class="st1" cx="813.9" cy="369.42" rx="5.87" ry="5.87"/>
						<circle class="st1" cx="835.23" cy="414.23" r="5.03"/>
						
							<ellipse transform="matrix(0.9781 -0.2079 0.2079 0.9781 -77.4571 186.6721)" class="st1" cx="849.3" cy="461.81" rx="4.2" ry="4.2"/>
						
							<ellipse transform="matrix(0.5446 -0.8387 0.8387 0.5446 -38.8681 950.4363)" class="st1" cx="855.81" cy="511.01" rx="3.36" ry="3.36"/>
						<circle class="st1" cx="854.56" cy="560.62" r="2.52"/>
						<circle class="st1" cx="845.54" cy="609.42" r="1.68"/>
						<circle class="st1" cx="828.94" cy="656.19" r="0.84"/>
						<path class="st1" d="M805.21,699.82"/>
					</g>
				</g>
			</g>
		</g>
		<g>
			<g>
				<g>
					<g>
						<circle class="st1" cx="756.32" cy="804.46" r="18.65"/>
						
							<ellipse transform="matrix(0.8765 -0.4815 0.4815 0.8765 -314.2492 445.1843)" class="st1" cx="710.36" cy="834.94" rx="17.71" ry="17.71"/>
						
							<ellipse transform="matrix(0.9636 -0.2672 0.2672 0.9636 -205.2378 207.6321)" class="st1" cx="660.21" cy="857.85" rx="16.78" ry="16.78"/>
						
							<ellipse transform="matrix(0.9636 -0.2672 0.2672 0.9636 -211.1035 193.9668)" class="st1" cx="607.07" cy="872.56" rx="15.85" ry="15.85"/>
						
							<ellipse transform="matrix(0.788 -0.6157 0.6157 0.788 -423.94 526.303)" class="st1" cx="552.28" cy="878.76" rx="14.92" ry="14.92"/>
						
							<ellipse transform="matrix(0.8448 -0.535 0.535 0.8448 -391.7072 401.975)" class="st1" cx="497.19" cy="876.33" rx="13.99" ry="13.99"/>
						<circle class="st1" cx="443.15" cy="865.36" r="13.05"/>
						
							<ellipse transform="matrix(0.8765 -0.4815 0.4815 0.8765 -359.0186 293.0287)" class="st1" cx="391.49" cy="846.1" rx="12.12" ry="12.12"/>
						
							<ellipse transform="matrix(0.7235 -0.6903 0.6903 0.7235 -470.3739 463.5496)" class="st1" cx="343.49" cy="818.97" rx="11.19" ry="11.19"/>
						
							<ellipse transform="matrix(0.788 -0.6157 0.6157 0.788 -419.3819 351.2484)" class="st1" cx="300.36" cy="784.61" rx="10.26" ry="10.26"/>
						<circle class="st1" cx="263.14" cy="743.93" r="9.32"/>
						<circle class="st1" cx="232.66" cy="697.97" r="8.39"/>
						
							<ellipse transform="matrix(0.8765 -0.4815 0.4815 0.8765 -286.0017 181.0286)" class="st1" cx="209.75" cy="647.82" rx="7.46" ry="7.46"/>
						<circle class="st1" cx="195.03" cy="594.68" r="6.53"/>
						<circle class="st1" cx="188.83" cy="539.89" r="5.59"/>
						
							<ellipse transform="matrix(0.9636 -0.2672 0.2672 0.9636 -122.6021 68.7434)" class="st1" cx="191.26" cy="484.8" rx="4.66" ry="4.66"/>
						
							<ellipse transform="matrix(0.9474 -0.3201 0.3201 0.9474 -127.2546 87.4029)" class="st1" cx="202.22" cy="430.76" rx="3.73" ry="3.73"/>
						<circle class="st1" cx="221.48" cy="379.1" r="2.8"/>
						
							<ellipse transform="matrix(0.9084 -0.4181 0.4181 0.9084 -115.6681 134.2892)" class="st1" cx="248.61" cy="331.1" rx="1.86" ry="1.86"/>
						<circle class="st1" cx="282.96" cy="287.97" r="0.93"/>
						<path class="st1" d="M323.68,250.72"/>
					</g>
				</g>
				<g>
					<g>
						<circle class="st1" cx="323.68" cy="250.72" r="18.65"/>
						<circle class="st1" cx="369.64" cy="220.24" r="17.71"/>
						<circle class="st1" cx="419.79" cy="197.33" r="16.78"/>
						
							<ellipse transform="matrix(0.788 -0.6157 0.6157 0.788 -12.1737 329.8786)" class="st1" cx="472.93" cy="182.62" rx="15.85" ry="15.85"/>
						
							<ellipse transform="matrix(0.788 -0.6157 0.6157 0.788 3.2552 362.298)" class="st1" cx="527.72" cy="176.42" rx="14.92" ry="14.92"/>
						
							<ellipse transform="matrix(0.9084 -0.4181 0.4181 0.9084 -21.3885 260.0844)" class="st1" cx="582.81" cy="178.85" rx="13.99" ry="13.99"/>
						
							<ellipse transform="matrix(0.788 -0.6157 0.6157 0.788 18.1414 432.3216)" class="st1" cx="636.85" cy="189.82" rx="13.05" ry="13.05"/>
						
							<ellipse transform="matrix(0.3466 -0.938 0.938 0.3466 253.7242 782.4235)" class="st1" cx="688.51" cy="209.08" rx="12.12" ry="12.12"/>
						
							<ellipse transform="matrix(0.3466 -0.938 0.938 0.3466 259.636 845.1754)" class="st1" cx="736.51" cy="236.21" rx="11.19" ry="11.19"/>
						
							<ellipse transform="matrix(0.3466 -0.938 0.938 0.3466 255.5873 908.0754)" class="st1" cx="779.64" cy="270.57" rx="10.26" ry="10.26"/>
						
							<ellipse transform="matrix(0.9636 -0.2672 0.2672 0.9636 -53.4702 229.6159)" class="st1" cx="816.86" cy="311.25" rx="9.32" ry="9.32"/>
						
							<ellipse transform="matrix(0.788 -0.6157 0.6157 0.788 -40.291 597.3975)" class="st1" cx="847.34" cy="357.21" rx="8.39" ry="8.39"/>
						
							<ellipse transform="matrix(0.4924 -0.8704 0.8704 0.4924 87.1684 964.1914)" class="st1" cx="870.25" cy="407.36" rx="7.46" ry="7.46"/>
						
							<ellipse transform="matrix(0.1219 -0.9925 0.9925 0.1219 320.0521 1282.7496)" class="st1" cx="884.97" cy="460.5" rx="6.53" ry="6.53"/>
						<circle class="st1" cx="891.17" cy="515.29" r="5.59"/>
						
							<ellipse transform="matrix(0.1219 -0.9925 0.9925 0.1219 214.308 1382.9821)" class="st1" cx="888.74" cy="570.38" rx="4.66" ry="4.66"/>
						
							<ellipse transform="matrix(0.788 -0.6157 0.6157 0.788 -198.3482 672.7835)" class="st1" cx="877.78" cy="624.41" rx="3.73" ry="3.73"/>
						<circle class="st1" cx="858.52" cy="676.08" r="2.8"/>
						<circle class="st1" cx="831.39" cy="724.08" r="1.86"/>
						<circle class="st1" cx="797.04" cy="767.21" r="0.93"/>
						<path class="st1" d="M756.32,804.46"/>
					</g>
				</g>
			</g>
		</g>
		<g>
			<g>
				<g>
					<g>
						<circle class="st1" cx="667.1" cy="896.72" r="20.72"/>
						
							<ellipse transform="matrix(0.9855 -0.1699 0.1699 0.9855 -146.1385 116.5327)" class="st1" cx="607.8" cy="912.11" rx="19.68" ry="19.68"/>
						
							<ellipse transform="matrix(0.061 -0.9981 0.9981 0.061 -402.8835 1407.787)" class="st1" cx="546.82" cy="918.03" rx="18.65" ry="18.65"/>
						
							<ellipse transform="matrix(0.061 -0.9981 0.9981 0.061 -456.5463 1343.2197)" class="st1" cx="485.67" cy="914.27" rx="17.61" ry="17.61"/>
						
							<ellipse transform="matrix(0.9455 -0.3256 0.3256 0.9455 -270.1218 187.7341)" class="st1" cx="425.87" cy="900.96" rx="16.58" ry="16.58"/>
						
							<ellipse transform="matrix(0.973 -0.2308 0.2308 0.973 -192.8057 108.8618)" class="st1" cx="368.87" cy="878.48" rx="15.54" ry="15.54"/>
						<circle class="st1" cx="316.07" cy="847.41" r="14.5"/>
						
							<ellipse transform="matrix(0.9855 -0.1699 0.1699 0.9855 -133.4613 57.4201)" class="st1" cx="268.76" cy="808.49" rx="13.47" ry="13.47"/>
						
							<ellipse transform="matrix(0.9088 -0.4172 0.4172 0.9088 -297.3293 164.6937)" class="st1" cx="228.14" cy="762.62" rx="12.43" ry="12.43"/>
						
							<ellipse transform="matrix(0.9455 -0.3256 0.3256 0.9455 -220.8153 102.3035)" class="st1" cx="195.26" cy="710.92" rx="11.4" ry="11.4"/>
						<circle class="st1" cx="170.88" cy="654.72" r="10.36"/>
						<circle class="st1" cx="155.48" cy="595.41" r="9.32"/>
						
							<ellipse transform="matrix(0.9855 -0.1699 0.1699 0.9855 -88.6307 33.182)" class="st1" cx="149.56" cy="534.43" rx="8.29" ry="8.29"/>
						<circle class="st1" cx="153.31" cy="473.28" r="7.25"/>
						<circle class="st1" cx="166.62" cy="413.48" r="6.22"/>
						
							<ellipse transform="matrix(0.061 -0.9981 0.9981 0.061 -178.2672 523.4662)" class="st1" cx="189.1" cy="356.48" rx="5.18" ry="5.18"/>
						
							<ellipse transform="matrix(5.757539e-03 -1 1 5.757539e-03 -84.7782 522.0906)" class="st1" cx="220.16" cy="303.68" rx="4.14" ry="4.14"/>
						<circle class="st1" cx="259.09" cy="256.37" r="3.11"/>
						
							<ellipse transform="matrix(0.995 -0.0996 0.0996 0.995 -19.9765 31.4536)" class="st1" cx="304.95" cy="215.75" rx="2.07" ry="2.07"/>
						<circle class="st1" cx="356.64" cy="182.86" r="1.04"/>
						<path class="st1" d="M412.9,158.46"/>
					</g>
				</g>
				<g>
					<g>
						<circle class="st1" cx="412.9" cy="158.46" r="20.72"/>
						<circle class="st1" cx="472.2" cy="143.07" r="19.68"/>
						<circle class="st1" cx="533.18" cy="137.15" r="18.65"/>
						
							<ellipse transform="matrix(0.9455 -0.3256 0.3256 0.9455 -13.4951 201.1721)" class="st1" cx="594.33" cy="140.91" rx="17.61" ry="17.61"/>
						
							<ellipse transform="matrix(0.9455 -0.3256 0.3256 0.9455 -14.571 221.3672)" class="st1" cx="654.13" cy="154.22" rx="16.58" ry="16.58"/>
						
							<ellipse transform="matrix(0.995 -0.0996 0.0996 0.995 -14.0655 71.7239)" class="st1" cx="711.13" cy="176.7" rx="15.54" ry="15.54"/>
						
							<ellipse transform="matrix(0.9455 -0.3256 0.3256 0.9455 -26.0226 260.0314)" class="st1" cx="763.93" cy="207.77" rx="14.5" ry="14.5"/>
						
							<ellipse transform="matrix(0.6331 -0.774 0.774 0.6331 106.659 718.4295)" class="st1" cx="811.24" cy="246.69" rx="13.47" ry="13.47"/>
						
							<ellipse transform="matrix(0.6331 -0.774 0.774 0.6331 86.0547 766.6934)" class="st1" cx="851.86" cy="292.56" rx="12.43" ry="12.43"/>
						
							<ellipse transform="matrix(0.6331 -0.774 0.774 0.6331 58.1035 811.1086)" class="st1" cx="884.74" cy="344.26" rx="11.4" ry="11.4"/>
						
							<ellipse transform="matrix(0.061 -0.9981 0.9981 0.061 453.9011 1283.4397)" class="st1" cx="909.12" cy="400.46" rx="10.36" ry="10.36"/>
						
							<ellipse transform="matrix(0.9455 -0.3256 0.3256 0.9455 -99.316 326.0423)" class="st1" cx="924.52" cy="459.77" rx="9.32" ry="9.32"/>
						
							<ellipse transform="matrix(0.749 -0.6626 0.6626 0.749 -111.4736 747.2592)" class="st1" cx="930.44" cy="520.74" rx="8.29" ry="8.29"/>
						
							<ellipse transform="matrix(0.4384 -0.8988 0.8988 0.4384 -2.5503 1159.7081)" class="st1" cx="926.69" cy="581.89" rx="7.25" ry="7.25"/>
						<circle class="st1" cx="913.38" cy="641.7" r="6.22"/>
						
							<ellipse transform="matrix(0.4384 -0.8988 0.8988 0.4384 -127.6254 1193.1453)" class="st1" cx="890.9" cy="698.69" rx="5.18" ry="5.18"/>
						
							<ellipse transform="matrix(0.9455 -0.3256 0.3256 0.9455 -197.8194 320.8781)" class="st1" cx="859.84" cy="751.5" rx="4.14" ry="4.14"/>
						<circle class="st1" cx="820.91" cy="798.81" r="3.11"/>
						<circle class="st1" cx="775.05" cy="839.43" r="2.07"/>
						<circle class="st1" cx="723.36" cy="872.31" r="1.04"/>
						<path class="st1" d="M667.1,896.72"/>
					</g>
				</g>
			</g>
		</g>
		<g>
			<g>
				<g>
					<g>
						<circle class="st1" cx="540" cy="961.36" r="23.02"/>
						
							<ellipse transform="matrix(0.1602 -0.9871 0.9871 0.1602 -547.2372 1268.9703)" class="st1" cx="472.13" cy="956.09" rx="21.87" ry="21.87"/>
						
							<ellipse transform="matrix(0.3827 -0.9239 0.9239 0.3827 -618.0905 955.4547)" class="st1" cx="405.92" cy="940.25" rx="20.72" ry="20.72"/>
						
							<ellipse transform="matrix(0.3827 -0.9239 0.9239 0.3827 -632.8215 881.2646)" class="st1" cx="343.04" cy="914.17" rx="19.57" ry="19.57"/>
						<circle class="st1" cx="285.03" cy="878.56" r="18.42"/>
						
							<ellipse transform="matrix(0.0985 -0.9951 0.9951 0.0985 -619.9661 984.2604)" class="st1" cx="233.28" cy="834.32" rx="17.27" ry="17.27"/>
						<circle class="st1" cx="189.05" cy="782.58" r="16.11"/>
						
							<ellipse transform="matrix(0.1602 -0.9871 0.9871 0.1602 -586.3647 759.9553)" class="st1" cx="153.43" cy="724.57" rx="14.96" ry="14.96"/>
						
							<ellipse transform="matrix(0.9951 -0.0985 0.0985 0.9951 -64.5817 15.7692)" class="st1" cx="127.35" cy="661.69" rx="13.81" ry="13.81"/>
						<circle class="st1" cx="111.51" cy="595.49" r="12.66"/>
						<circle class="st1" cx="106.23" cy="527.62" r="11.51"/>
						<circle class="st1" cx="111.5" cy="459.75" r="10.36"/>
						
							<ellipse transform="matrix(0.1602 -0.9871 0.9871 0.1602 -281.522 456.1933)" class="st1" cx="127.33" cy="393.54" rx="9.21" ry="9.21"/>
						<circle class="st1" cx="153.4" cy="330.66" r="8.06"/>
						<circle class="st1" cx="189.02" cy="272.64" r="6.91"/>
						
							<ellipse transform="matrix(0.3827 -0.9239 0.9239 0.3827 -60.0938 351.8525)" class="st1" cx="233.25" cy="220.89" rx="5.76" ry="5.76"/>
						
							<ellipse transform="matrix(0.331 -0.9436 0.9436 0.331 23.9555 387.1021)" class="st1" cx="284.99" cy="176.66" rx="4.6" ry="4.6"/>
						<circle class="st1" cx="342.99" cy="141.03" r="3.45"/>
						
							<ellipse transform="matrix(0.2298 -0.9732 0.9732 0.2298 200.745 483.5532)" class="st1" cx="405.87" cy="114.95" rx="2.3" ry="2.3"/>
						<circle class="st1" cx="472.07" cy="99.1" r="1.15"/>
						<path class="st1" d="M540,93.82"/>
					</g>
				</g>
				<g>
					<g>
						<circle class="st1" cx="540" cy="93.82" r="23.02"/>
						<circle class="st1" cx="607.87" cy="99.09" r="21.87"/>
						<circle class="st1" cx="674.08" cy="114.93" r="20.72"/>
						<circle class="st1" cx="736.96" cy="141" r="19.57"/>
						<circle class="st1" cx="794.97" cy="176.62" r="18.42"/>
						
							<ellipse transform="matrix(0.2298 -0.9732 0.9732 0.2298 437.2327 994.1783)" class="st1" cx="846.72" cy="220.86" rx="17.27" ry="17.27"/>
						<circle class="st1" cx="890.95" cy="272.6" r="16.11"/>
						
							<ellipse transform="matrix(0.8507 -0.5257 0.5257 0.8507 -35.4277 536.5039)" class="st1" cx="926.57" cy="330.61" rx="14.96" ry="14.96"/>
						
							<ellipse transform="matrix(0.8507 -0.5257 0.5257 0.8507 -64.5914 559.6039)" class="st1" cx="952.65" cy="393.49" rx="13.81" ry="13.81"/>
						
							<ellipse transform="matrix(0.8507 -0.5257 0.5257 0.8507 -97.0306 577.8207)" class="st1" cx="968.49" cy="459.69" rx="12.66" ry="12.66"/>
						
							<ellipse transform="matrix(0.3827 -0.9239 0.9239 0.3827 113.7243 1225.3218)" class="st1" cx="973.77" cy="527.56" rx="11.51" ry="11.51"/>
						<circle class="st1" cx="968.5" cy="595.43" r="10.36"/>
						
							<ellipse transform="matrix(0.9239 -0.3827 0.3827 0.9239 -180.6804 414.933)" class="st1" cx="952.67" cy="661.64" rx="9.21" ry="9.21"/>
						
							<ellipse transform="matrix(0.7071 -0.7071 0.7071 0.7071 -240.92 867.4113)" class="st1" cx="926.6" cy="724.52" rx="8.06" ry="8.06"/>
						<circle class="st1" cx="890.98" cy="782.54" r="6.91"/>
						
							<ellipse transform="matrix(0.7071 -0.7071 0.7071 0.7071 -341.9196 843.1022)" class="st1" cx="846.75" cy="834.28" rx="5.76" ry="5.76"/>
						<circle class="st1" cx="795.01" cy="878.52" r="4.6"/>
						<circle class="st1" cx="737.01" cy="914.15" r="3.45"/>
						<circle class="st1" cx="674.13" cy="940.23" r="2.3"/>
						<circle class="st1" cx="607.93" cy="956.08" r="1.15"/>
						<path class="st1" d="M540,961.36"/>
					</g>
				</g>
			</g>
		</g>
	</g>
</g>
</svg>
