<?xml version="1.0" encoding="utf-8"?>
<!-- Generator: Adobe Illustrator 25.4.1, SVG Export Plug-In . SVG Version: 6.00 Build 0)  -->
<svg version="1.1" id="Layer_1" xmlns="http://www.w3.org/2000/svg" xmlns:xlink="http://www.w3.org/1999/xlink" x="0px" y="0px"
	 viewBox="0 0 999.75 705.32" style="enable-background:new 0 0 999.75 705.32;" xml:space="preserve">
<style type="text/css">
	.st0{fill:#8C898A;stroke:#000000;stroke-width:6;stroke-miterlimit:10;}
	.st1{fill:#012F3F;stroke:#000000;stroke-miterlimit:10;}
	.st2{fill:#9C3A54;stroke:#000000;stroke-miterlimit:10;}
	.st3{fill:none;stroke:#000000;stroke-miterlimit:10;}
	.st4{fill:#772139;stroke:#000000;stroke-miterlimit:10;}
	.st5{fill:#DBB765;stroke:#000000;stroke-miterlimit:10;}
	.st6{fill:#4E6C82;stroke:#000000;stroke-miterlimit:10;}
	.st7{fill:#C9B92E;stroke:#000000;stroke-miterlimit:10;}
	.st8{fill:#4A2D87;stroke:#000000;stroke-miterlimit:10;}
	.st9{fill:#A03431;stroke:#000000;stroke-miterlimit:10;}
	.st10{fill:#7C7B7B;stroke:#000000;stroke-miterlimit:10;}
	.st11{stroke:#000000;stroke-miterlimit:10;}
	.st12{fill:#41A7DE;stroke:#000000;stroke-miterlimit:10;}
	.st13{fill:#B34039;stroke:#000000;stroke-miterlimit:10;}
	.st14{fill:#34ACB2;stroke:#000000;stroke-miterlimit:10;}
	.st15{fill:#6E469C;stroke:#000000;stroke-miterlimit:10;}
	.st16{fill:#939291;stroke:#000000;stroke-miterlimit:10;}
	.st17{fill:#7590AA;stroke:#000000;stroke-miterlimit:10;}
	.st18{fill:#A0B6DE;stroke:#000000;stroke-miterlimit:10;}
	.st19{fill:#F48CA7;stroke:#000000;stroke-miterlimit:10;}
	.st20{fill:none;stroke:#020202;stroke-miterlimit:10;}
	.st21{fill:#EFE138;stroke:#000000;stroke-miterlimit:10;}
	.st22{fill:#562B28;stroke:#000000;stroke-miterlimit:10;}
	.st23{fill:#AF625A;stroke:#000000;stroke-miterlimit:10;}
	.st24{fill:#A79C34;stroke:#000000;stroke-miterlimit:10;}
	.st25{fill:#353535;}
	.st26{fill:#444445;stroke:#2B2A2A;stroke-miterlimit:10;}
	.st27{fill:#2B2A2A;}
	.st28{fill:none;stroke:#2B2A2A;stroke-miterlimit:10;}
	.st29{fill:#2B2A2A;stroke:#2B2A2A;stroke-width:3;stroke-miterlimit:10;}
	.st30{fill:none;stroke:#000000;stroke-width:3;stroke-miterlimit:10;}
	.st31{fill:#5DCBED;stroke:#000000;stroke-miterlimit:10;}
	.st32{fill:#F0CA6F;stroke:#000000;stroke-miterlimit:10;}
	.st33{fill:#48BAEB;stroke:#000000;stroke-miterlimit:10;}
	.st34{fill:#9E8B91;stroke:#000000;stroke-miterlimit:10;}
	.st35{fill:#053A4C;stroke:#000000;stroke-miterlimit:10;}
	.st36{fill:#F4C759;stroke:#000000;stroke-miterlimit:10;}
	.st37{fill:#FCCF86;stroke:#000000;stroke-miterlimit:10;}
	.st38{fill:#3A99B2;stroke:#000000;stroke-miterlimit:10;}
</style>
<polygon class="st0" points="478.27,687.37 198.11,351.75 432.5,344.84 768.61,359.08 "/>
<polygon class="st1" points="731.1,383.17 446.78,357.79 446.78,307.23 731.1,278.01 "/>
<g>
	<polygon class="st2" points="244.01,384.18 219.42,363.89 219.42,300.31 244.01,277.01 	"/>
	<polygon class="st3" points="241.79,380.73 221.64,364.11 221.64,304.26 241.79,288.32 	"/>
	<line class="st3" x1="221.64" y1="311.73" x2="241.79" y2="298.56"/>
	<line class="st3" x1="221.64" y1="316.86" x2="241.79" y2="306.49"/>
	<line class="st3" x1="221.64" y1="322" x2="241.79" y2="314.42"/>
	<line class="st3" x1="221.64" y1="327.13" x2="241.79" y2="322.35"/>
	<line class="st3" x1="221.64" y1="332.27" x2="241.79" y2="330.27"/>
	<line class="st3" x1="221.64" y1="337.4" x2="241.79" y2="338.2"/>
	<line class="st3" x1="221.64" y1="342.54" x2="241.79" y2="346.13"/>
	<line class="st3" x1="221.64" y1="347.67" x2="241.79" y2="354.06"/>
	<line class="st3" x1="221.64" y1="352.81" x2="241.79" y2="361.99"/>
</g>
<polygon class="st4" points="452.86,365.12 244.01,384.18 244.01,276.37 452.86,298.5 "/>
<polygon class="st5" points="682.51,421.72 347.93,363.09 347.93,299.54 682.51,228.84 "/>
<polygon class="st6" points="527.71,376.12 281.35,415.34 281.35,229.22 527.71,280.05 "/>
<polygon class="st7" points="573.71,409.39 363.23,482.83 363.23,87.01 573.71,208.54 "/>
<polygon class="st8" points="611.31,477.63 406.72,409.07 406.72,211.32 611.31,98.6 "/>
<polygon class="st9" points="591.43,498.03 486.54,584.29 486.54,25.25 591.43,131.88 "/>
<polygon class="st10" points="586.03,496.3 501.71,563.1 501.71,421.06 586.03,395.72 "/>
<line class="st3" x1="501.71" y1="444.15" x2="586.03" y2="412.07"/>
<line class="st3" x1="501.71" y1="465.06" x2="586.03" y2="426.88"/>
<line class="st3" x1="501.71" y1="485.98" x2="586.03" y2="441.69"/>
<line class="st3" x1="501.71" y1="506.89" x2="586.03" y2="456.5"/>
<line class="st3" x1="501.71" y1="527.81" x2="586.03" y2="471.31"/>
<line class="st3" x1="501.71" y1="548.72" x2="586.03" y2="486.12"/>
<line class="st3" x1="501.71" y1="421.06" x2="501.71" y2="571.82"/>
<line class="st3" x1="586.03" y1="395.72" x2="586.03" y2="502.47"/>
<polygon class="st11" points="586.03,502.47 582.73,498.91 582.73,396.71 586.03,395.72 "/>
<line class="st3" x1="486.54" y1="382.96" x2="591.43" y2="366.17"/>
<polygon class="st12" points="543.76,171.65 501.71,143.94 501.71,55.05 543.76,95.71 "/>
<polygon class="st12" points="584.4,198.43 555.85,179.62 555.85,107.4 584.4,134.99 "/>
<polygon class="st12" points="584.4,273.07 555.85,264.59 555.85,192.37 584.4,209.63 "/>
<polygon class="st12" points="584.4,347.7 555.85,349.56 555.85,277.34 584.4,284.26 "/>
<polygon class="st12" points="543.76,261 501.71,248.51 501.71,159.62 543.76,185.05 "/>
<polygon class="st12" points="543.76,350.35 501.71,353.08 501.71,264.2 543.76,274.4 "/>
<line class="st3" x1="524.38" y1="76.97" x2="524.38" y2="158.88"/>
<line class="st12" x1="524.38" y1="173.34" x2="524.38" y2="255.24"/>
<line class="st3" x1="524.38" y1="269.7" x2="524.38" y2="351.61"/>
<line class="st3" x1="571.05" y1="122.09" x2="571.05" y2="189.64"/>
<line class="st3" x1="571.05" y1="201.56" x2="571.05" y2="269.1"/>
<line class="st3" x1="571.05" y1="281.02" x2="571.05" y2="348.57"/>
<polygon class="st11" points="543.76,101.17 501.71,61.44 501.71,55.05 543.76,95.71 "/>
<polygon class="st11" points="540.84,96.27 543.76,99.06 543.76,171.65 540.84,169.72 "/>
<polygon class="st11" points="584.4,139.55 555.85,112.59 555.85,107.4 584.4,134.99 "/>
<polygon class="st11" points="582.36,135.85 584.4,137.79 584.4,198.43 582.36,197.09 "/>
<polygon class="st11" points="584.4,214.19 555.85,197.56 555.85,192.37 584.4,209.63 "/>
<polygon class="st11" points="582.36,211.22 584.4,212.43 584.4,273.07 582.36,272.46 "/>
<polygon class="st11" points="584.4,288.82 555.85,282.53 555.85,277.34 584.4,284.26 "/>
<polygon class="st11" points="582.36,286.59 584.4,287.06 584.4,347.7 582.36,347.83 "/>
<polygon class="st11" points="543.76,279.86 501.71,270.59 501.71,264.2 543.76,274.4 "/>
<polygon class="st11" points="540.84,277.08 543.76,277.75 543.76,350.35 540.84,350.54 "/>
<polygon class="st11" points="543.76,190.51 501.71,166.01 501.71,159.62 543.76,185.05 "/>
<polygon class="st11" points="540.84,186.68 543.76,188.4 543.76,261 540.84,260.13 "/>
<polygon class="st13" points="486.54,584.29 382,498.03 382,131.88 486.54,25.25 "/>
<line class="st3" x1="382" y1="366.17" x2="486.54" y2="382.96"/>
<polygon class="st12" points="417.54,179.57 389.07,198.39 389.07,134.93 417.54,107.32 "/>
<polygon class="st12" points="471.55,143.86 429.6,171.59 429.6,95.62 471.55,54.93 "/>
<polygon class="st12" points="471.55,248.47 429.6,260.97 429.6,185 471.55,159.55 "/>
<polygon class="st12" points="471.55,353.09 429.6,350.35 429.6,274.38 471.55,264.17 "/>
<polygon class="st12" points="417.54,264.57 389.07,273.05 389.07,209.59 417.54,192.32 "/>
<polygon class="st12" points="417.54,349.56 389.07,347.71 389.07,284.25 417.54,277.32 "/>
<line class="st3" x1="402.38" y1="122.02" x2="402.38" y2="189.59"/>
<line class="st3" x1="402.38" y1="201.51" x2="402.38" y2="269.08"/>
<line class="st3" x1="402.38" y1="281.01" x2="402.38" y2="348.58"/>
<line class="st3" x1="448.93" y1="76.87" x2="448.93" y2="158.81"/>
<line class="st3" x1="448.93" y1="173.27" x2="448.93" y2="255.21"/>
<line class="st3" x1="448.93" y1="269.67" x2="448.93" y2="351.61"/>
<polygon class="st11" points="417.54,112.51 389.07,139.49 389.07,134.93 417.54,107.32 "/>
<polygon class="st11" points="414.96,112.97 417.54,110.51 417.54,179.57 414.96,181.27 "/>
<polygon class="st11" points="471.55,61.33 429.6,101.08 429.6,95.62 471.55,54.93 "/>
<polygon class="st11" points="467.65,62.58 471.55,58.86 471.55,143.86 467.65,146.43 "/>
<polygon class="st11" points="471.55,165.94 429.6,190.46 429.6,185 471.55,159.55 "/>
<polygon class="st11" points="467.65,165.78 471.55,163.47 471.55,248.47 467.65,249.63 "/>
<polygon class="st11" points="471.55,270.56 429.6,279.84 429.6,274.38 471.55,264.17 "/>
<polygon class="st11" points="467.65,268.99 471.55,268.09 471.55,353.09 467.65,352.84 "/>
<polygon class="st11" points="417.54,282.51 389.07,288.81 389.07,284.25 417.54,277.32 "/>
<polygon class="st11" points="414.96,281.1 417.54,280.5 417.54,349.56 414.96,349.4 "/>
<polygon class="st11" points="417.54,197.51 389.07,214.15 389.07,209.59 417.54,192.32 "/>
<polygon class="st11" points="414.96,197.03 417.54,195.51 417.54,264.57 414.96,265.33 "/>
<polygon class="st14" points="448.93,546.42 402.38,509.22 402.38,394.61 448.93,407.45 "/>
<polygon points="407.03,512.92 402.2,513.04 402.2,394.15 407.03,395.47 "/>
<polygon points="411.15,458.48 410.24,457.99 410.24,435.9 411.15,436.3 "/>
<polygon class="st15" points="612.38,479.97 668.32,434.22 668.32,172.78 612.38,98.86 "/>
<polygon class="st12" points="631.15,191.09 616.74,178.14 616.74,112.13 631.15,130.55 "/>
<polygon points="631.15,135.05 616.74,117.03 616.74,112.13 631.15,130.55 "/>
<polygon points="629.61,133.13 631.15,135.05 631.15,191.09 629.61,189.71 "/>
<line class="st3" x1="623.34" y1="125.29" x2="623.34" y2="184.08"/>
<line class="st3" x1="616.74" y1="147.59" x2="629.89" y2="161.71"/>
<polygon class="st12" points="650.73,208.68 639.76,198.83 639.76,141.56 650.73,155.58 "/>
<polygon points="650.73,159.52 639.76,145.82 639.76,141.56 650.73,155.58 "/>
<polygon points="649.55,158.05 650.73,159.52 650.73,208.68 649.55,207.62 "/>
<line class="st3" x1="644.76" y1="152.06" x2="644.76" y2="203.32"/>
<line class="st3" x1="639.76" y1="172.32" x2="649.76" y2="183.06"/>
<polygon class="st12" points="650.08,282.87 639.01,278.82 639.01,221.27 650.08,229.53 "/>
<polygon points="650.08,233.49 639.01,225.55 639.01,221.27 650.08,229.53 "/>
<polygon points="648.89,232.64 650.08,233.49 650.08,282.87 648.89,282.44 "/>
<line class="st3" x1="644.06" y1="229.17" x2="644.06" y2="280.67"/>
<line class="st3" x1="639.01" y1="252.18" x2="649.11" y2="257.65"/>
<polygon class="st12" points="649.43,357.75 638.26,359.61 638.26,301.77 649.43,304.16 "/>
<polygon points="649.43,308.14 638.26,306.07 638.26,301.77 649.43,304.16 "/>
<polygon points="648.23,307.92 649.43,308.14 649.43,357.75 648.23,357.95 "/>
<line class="st3" x1="643.35" y1="307.01" x2="643.35" y2="358.76"/>
<line class="st3" x1="638.26" y1="332.84" x2="648.45" y2="332.94"/>
<polygon class="st12" points="666.02,222.42 657.4,214.68 657.4,164.11 666.02,175.13 "/>
<polygon points="666.02,178.64 657.4,167.87 657.4,164.11 666.02,175.13 "/>
<polygon points="665.09,177.48 666.02,178.64 666.02,222.42 665.09,221.58 "/>
<line class="st3" x1="661.31" y1="172.75" x2="661.31" y2="218.19"/>
<line class="st3" x1="657.4" y1="191.27" x2="665.26" y2="199.71"/>
<polygon class="st12" points="665.51,288.52 656.82,285.34 656.82,234.55 665.51,241.03 "/>
<polygon points="665.51,244.56 656.82,238.32 656.82,234.55 665.51,241.03 "/>
<polygon points="664.57,243.89 665.51,244.56 665.51,288.52 664.57,288.18 "/>
<line class="st3" x1="660.76" y1="241.15" x2="660.76" y2="286.78"/>
<line class="st3" x1="656.82" y1="261.83" x2="664.74" y2="266.12"/>
<polygon class="st12" points="665,355.16 656.23,356.62 656.23,305.61 665,307.48 "/>
<polygon points="665,311.03 656.23,309.4 656.23,305.61 665,307.48 "/>
<polygon points="664.05,310.85 665,311.03 665,355.16 664.05,355.32 "/>
<line class="st3" x1="660.21" y1="310.14" x2="660.21" y2="355.96"/>
<line class="st3" x1="656.23" y1="333.01" x2="664.22" y2="333.09"/>
<polygon class="st12" points="631.15,275.94 616.74,270.67 616.74,204.65 631.15,215.4 "/>
<polygon points="631.15,219.9 616.74,209.56 616.74,204.65 631.15,215.4 "/>
<polygon points="629.61,218.8 631.15,219.9 631.15,275.94 629.61,275.38 "/>
<line class="st3" x1="623.34" y1="214.3" x2="623.34" y2="273.08"/>
<line class="st3" x1="616.74" y1="240.11" x2="629.89" y2="247.24"/>
<polygon class="st12" points="631.15,360.79 616.74,363.19 616.74,297.18 631.15,300.25 "/>
<polygon points="631.15,304.75 616.74,302.08 616.74,297.18 631.15,300.25 "/>
<polygon points="629.61,304.47 631.15,304.75 631.15,360.79 629.61,361.05 "/>
<line class="st3" x1="623.34" y1="303.31" x2="623.34" y2="362.09"/>
<line class="st3" x1="616.74" y1="332.64" x2="629.89" y2="332.76"/>
<polygon class="st16" points="660.07,437.88 625.82,465.06 625.82,410.27 660.07,394.47 "/>
<polygon points="658.51,439.11 660.07,440.97 660.07,394.47 658.51,395.19 "/>
<polygon points="625.7,469.85 626.36,469.3 626.36,410.02 625.7,410.33 "/>
<polygon class="st17" points="281.3,414.94 254.03,392.45 254.03,258.82 281.3,229.64 "/>
<polygon class="st18" points="279.71,268.19 254.89,285.25 254.89,264.92 279.71,240.78 "/>
<polygon class="st18" points="279.71,302.44 254.89,310.66 254.89,290.32 279.71,275.03 "/>
<polygon class="st18" points="279.71,336.68 254.89,336.06 254.89,315.73 279.71,309.27 "/>
<polygon points="255.48,284.84 254.89,285.25 254.89,264.92 255.48,264.34 "/>
<polygon points="255.48,310.46 254.89,310.66 254.89,290.32 255.48,289.95 "/>
<polygon points="255.48,336.08 254.89,336.06 254.89,315.73 255.48,315.57 "/>
<polygon class="st19" points="277.01,408.76 256.52,392.43 256.52,349.51 277.01,353.78 "/>
<polygon points="257.28,393.03 256.52,394.5 256.52,349.51 257.28,349.66 "/>
<line class="st3" x1="277.01" y1="353.78" x2="277.01" y2="411.41"/>
<line class="st3" x1="265.96" y1="351.47" x2="265.96" y2="399.95"/>
<line class="st3" x1="262.25" y1="350.7" x2="262.25" y2="397"/>
<line class="st3" x1="269.79" y1="352.27" x2="269.79" y2="403"/>
<line class="st3" x1="266.46" y1="368.85" x2="266.46" y2="384.04"/>
<line class="st3" x1="264.96" y1="368.22" x2="264.96" y2="383.14"/>
<polygon class="st20" points="352.91,280.24 300.95,296.82 300.95,218.44 352.91,167.17 "/>
<polygon class="st21" points="361.97,477.26 297.46,425.57 297.46,177.55 361.97,88.8 "/>
<polygon class="st7" points="361.97,145.05 297.46,213.47 296.19,209.37 359.54,139.13 "/>
<polygon class="st21" points="359.54,139.13 296.19,209.37 296.19,179.29 359.54,92.15 "/>
<polygon class="st22" points="353.22,470.24 301.1,428.48 301.1,359.33 353.22,370.44 "/>
<polygon class="st3" points="348.77,466.68 303.03,430.03 303.03,370.84 348.77,384.83 "/>
<polygon points="304.41,427.27 303.03,430.03 303.03,370.84 304.41,371.26 "/>
<polygon class="st23" points="349.11,461.64 303.37,426.45 303.37,371.08 349.11,385.07 "/>
<polygon class="st24" points="353.22,359.53 301.1,351.78 301.1,305.22 353.22,292.34 "/>
<polygon class="st3" points="348.77,349.44 303.71,345.31 303.71,311.96 348.77,303.59 "/>
<polygon points="304.39,345.37 303.71,345.31 303.71,311.96 304.39,311.83 "/>
<polygon points="304.05,320.87 348.77,315.89 348.77,303.59 304.05,311.9 "/>
<polygon class="st25" points="310.52,345.93 304.39,345.37 304.39,313.1 310.52,320.15 "/>
<polygon class="st26" points="322.9,347.07 316.29,346.46 316.29,322.57 322.9,321.99 "/>
<polygon class="st27" points="317.6,346.58 316.29,346.46 316.29,322.57 317.6,322.45 "/>
<polygon class="st26" points="348.77,343.46 331.33,342.5 331.33,321.24 348.77,319.7 "/>
<polygon class="st27" points="332.61,342.57 331.33,342.5 331.33,321.24 332.61,321.13 "/>
<line class="st28" x1="337.97" y1="320.65" x2="337.97" y2="342.86"/>
<line class="st28" x1="344.14" y1="320.11" x2="344.14" y2="343.21"/>
<line class="st29" x1="303.71" y1="332.32" x2="348.77" y2="331.58"/>
<line class="st30" x1="306.53" y1="332.27" x2="306.53" y2="345.56"/>
<line class="st30" x1="309.53" y1="332.22" x2="309.53" y2="345.84"/>
<line class="st30" x1="312.69" y1="332.17" x2="312.69" y2="346.13"/>
<line class="st30" x1="316.01" y1="332.12" x2="316.01" y2="346.43"/>
<line class="st30" x1="319.5" y1="332.06" x2="319.5" y2="346.75"/>
<line class="st30" x1="323.18" y1="332" x2="323.18" y2="347.09"/>
<line class="st30" x1="327.07" y1="331.94" x2="327.07" y2="347.45"/>
<line class="st30" x1="331.18" y1="331.87" x2="331.18" y2="347.83"/>
<line class="st30" x1="335.53" y1="331.8" x2="335.53" y2="348.22"/>
<line class="st30" x1="340.15" y1="331.72" x2="340.15" y2="348.65"/>
<line class="st30" x1="345.05" y1="331.64" x2="345.05" y2="349.1"/>
<polygon class="st31" points="348.77,268.36 303.71,286.34 303.71,225.32 348.77,184.46 "/>
<line class="st3" x1="309.53" y1="220.04" x2="309.53" y2="284.02"/>
<line class="st3" x1="316.01" y1="214.17" x2="316.01" y2="281.43"/>
<line class="st3" x1="323.18" y1="207.66" x2="323.18" y2="278.57"/>
<line class="st3" x1="331.18" y1="200.41" x2="331.18" y2="275.38"/>
<line class="st3" x1="340.15" y1="192.28" x2="340.15" y2="271.8"/>
<line class="st3" x1="303.71" y1="251.77" x2="348.77" y2="220.84"/>
<polygon points="304.41,286.06 303.71,286.34 303.71,225.32 304.41,224.69 "/>
<polygon class="st32" points="721.48,391.08 683.17,422.59 683.17,229.58 721.48,266.94 "/>
<polygon class="st11" points="720.82,339.88 685.38,342.8 685.38,235.7 720.82,269.51 "/>
<polygon class="st33" points="696.48,291.78 686.01,287.04 686.01,243.45 696.48,252.55 "/>
<polygon class="st33" points="705.92,296.04 697.54,292.25 697.54,253.47 705.92,260.75 "/>
<polygon class="st33" points="713.6,299.84 706.74,296.76 706.74,261.81 713.6,267.75 "/>
<polygon class="st33" points="720.12,302.46 714.41,299.88 714.41,268.13 720.12,273.09 "/>
<polygon class="st33" points="696.48,336.54 686.01,336.79 686.01,293.19 696.48,297.31 "/>
<polygon class="st33" points="705.92,336.31 697.54,336.51 697.54,297.73 705.92,301.02 "/>
<polygon class="st33" points="713.6,336.45 706.74,336.65 706.74,301.7 713.6,304.37 "/>
<polygon class="st33" points="720.12,335.97 714.41,336.11 714.41,304.36 720.12,306.6 "/>
<polygon class="st34" points="712.85,396.66 699.58,407.3 699.58,353.59 712.85,350.78 "/>
<polygon points="700.22,406.79 699.47,409.18 699.47,353.47 700.22,353.31 "/>
<polygon class="st12" points="698.13,386.45 684.42,394.18 684.42,358.88 698.13,355.71 "/>
<polygon class="st12" points="721.07,372.14 713.6,376.21 713.6,350.62 721.07,349.03 "/>
<polygon points="697.54,386.78 698.13,386.45 698.13,355.71 697.54,355.84 "/>
<polygon points="698.13,386.45 684.42,394.18 684.42,391.41 698.13,384.03 "/>
<polygon points="720.74,372.32 721.07,372.14 721.07,349.03 720.74,349.1 "/>
<polygon points="721.07,372.14 713.6,376.21 713.6,374.2 721.07,370.32 "/>
<line class="st3" x1="700.22" y1="357.06" x2="712.85" y2="353.88"/>
<line class="st3" x1="700.22" y1="360.94" x2="712.85" y2="357.22"/>
<line class="st3" x1="700.22" y1="364.83" x2="712.85" y2="360.56"/>
<line class="st3" x1="700.22" y1="368.71" x2="712.85" y2="363.9"/>
<line class="st3" x1="700.22" y1="372.59" x2="712.85" y2="367.24"/>
<line class="st3" x1="700.22" y1="376.48" x2="712.85" y2="370.58"/>
<line class="st3" x1="700.22" y1="380.36" x2="712.85" y2="373.92"/>
<line class="st3" x1="700.22" y1="384.24" x2="712.85" y2="377.26"/>
<line class="st3" x1="700.22" y1="388.13" x2="712.85" y2="380.6"/>
<line class="st3" x1="700.22" y1="392.01" x2="712.85" y2="383.94"/>
<line class="st3" x1="700.22" y1="395.89" x2="712.85" y2="387.28"/>
<line class="st3" x1="700.22" y1="399.78" x2="712.85" y2="390.62"/>
<line class="st3" x1="700.22" y1="403.66" x2="712.85" y2="393.96"/>
<line class="st3" x1="689.51" y1="357.7" x2="689.51" y2="389.33"/>
<line class="st3" x1="693.59" y1="356.76" x2="693.59" y2="386.47"/>
<line class="st3" x1="716.4" y1="350.02" x2="716.4" y2="373.23"/>
<line class="st3" x1="718.62" y1="349.55" x2="718.62" y2="371.59"/>
<polygon class="st35" points="743.42,373.04 731.1,383.17 731.1,278.22 743.42,289.84 "/>
<polygon class="st36" points="741.01,351.73 734.54,354.01 734.54,346.9 741.01,345.44 "/>
<line class="st3" x1="730.95" y1="334.47" x2="743.42" y2="334.43"/>
<polygon class="st37" points="739.76,376.05 735.93,379.2 735.93,353.52 739.76,352.17 "/>
<polygon class="st38" points="743.5,334.43 731.02,334.47 731.02,278.01 743.5,289.8 "/>
<line class="st3" x1="737.94" y1="284.3" x2="737.94" y2="334.47"/>
<line class="st3" x1="322.49" y1="376.68" x2="322.49" y2="441.56"/>
<line class="st3" x1="311.41" y1="373.29" x2="311.41" y2="433.04"/>
<line class="st3" x1="334.95" y1="380.49" x2="334.95" y2="451.15"/>
<line class="st3" x1="221.64" y1="357.23" x2="241.79" y2="371.99"/>
<line class="st3" x1="221.64" y1="353.35" x2="241.79" y2="365.32"/>
</svg>
